<?xml version="1.0" encoding="UTF-8" standalone="no"?>
<svg
   inkscape:export-ydpi="96"
   inkscape:export-xdpi="96"
   inkscape:export-filename=""
   enable-background="new"
   sodipodi:docname="StoryTemplate.svg"
   inkscape:version="1.2.2 (b0a8486541, 2022-12-01)"
   id="svg8"
   version="1.1"
   viewBox="0 0 357.1875 508"
   height="508mm"
   width="357.1875mm"
   xmlns:inkscape="http://www.inkscape.org/namespaces/inkscape"
   xmlns:sodipodi="http://sodipodi.sourceforge.net/DTD/sodipodi-0.dtd"
   xmlns:xlink="http://www.w3.org/1999/xlink"
   xmlns="http://www.w3.org/2000/svg"
   xmlns:svg="http://www.w3.org/2000/svg"
   xmlns:rdf="http://www.w3.org/1999/02/22-rdf-syntax-ns#"
   xmlns:cc="http://creativecommons.org/ns#"
   xmlns:dc="http://purl.org/dc/elements/1.1/">
  <defs
     id="defs2">
    <inkscape:path-effect
       is_visible="true"
       id="path-effect5423"
       effect="spiro"
       lpeversion="0" />
    <inkscape:path-effect
       only_selected="false"
       apply_with_weight="true"
       apply_no_weight="true"
       helper_size="0"
       steps="2"
       weight="33.333333"
       is_visible="true"
       id="path-effect5419"
       effect="bspline"
       lpeversion="0" />
    <inkscape:path-effect
       only_selected="false"
       apply_with_weight="true"
       apply_no_weight="true"
       helper_size="0"
       steps="2"
       weight="33.333333"
       is_visible="true"
       id="path-effect900"
       effect="bspline"
       lpeversion="0" />
  </defs>
  <sodipodi:namedview
     inkscape:document-rotation="0"
     inkscape:snap-smooth-nodes="false"
     inkscape:window-maximized="1"
     inkscape:window-y="0"
     inkscape:window-x="0"
     inkscape:window-height="1006"
     inkscape:window-width="1920"
     showgrid="false"
     inkscape:current-layer="g5490"
     inkscape:document-units="mm"
     inkscape:cy="945.5"
     inkscape:cx="486.5"
     inkscape:zoom="1"
     inkscape:pageshadow="2"
     inkscape:pageopacity="0.0"
     borderopacity="1.0"
     bordercolor="#666666"
     pagecolor="#ffffff"
     id="base"
     inkscape:pagecheckerboard="1"
     fit-margin-top="0"
     fit-margin-left="0"
     fit-margin-right="0"
     fit-margin-bottom="0"
     inkscape:showpageshadow="0"
     inkscape:deskcolor="#d1d1d1" />
  <metadata
     id="metadata5">
    <rdf:RDF>
      <cc:Work
         rdf:about="">
        <dc:format>image/svg+xml</dc:format>
        <dc:type
           rdf:resource="http://purl.org/dc/dcmitype/StillImage" />
      </cc:Work>
    </rdf:RDF>
  </metadata>
  <g
     inkscape:label="Background"
     id="layer2"
     inkscape:groupmode="layer"
     transform="translate(0,46.958332)">
    <rect
       style="display:inline;fill:#ffffff;stroke-width:0.264583"
       id="rect761"
       width="357.1875"
       height="508"
       x="0"
       y="-46.958332" />
    <path
       style="display:inline;fill:#000000;stroke-width:0.264583"
       d="m 0,417.28562 v -90.71441 l 1.57588,-0.1647 c 10.17105,-1.0631 24.68509,-0.75658 36.39017,0.76848 53.1825,6.92925 100.32041,40.14198 125.05931,88.11509 14.48817,28.09515 20.48267,58.6957 17.77441,90.73438 L 180.63277,508 H 90.31639 0 Z m 156.61643,76.00307 c 3.12766,-0.76327 5.49029,-2.08402 7.71242,-4.31139 2.2608,-2.2661 3.16834,-3.67585 4.15096,-6.44805 0.57812,-1.63097 0.68083,-2.3826 0.6954,-5.08863 0.0151,-2.80164 -0.0658,-3.4032 -0.68741,-5.11561 -0.97094,-2.67451 -2.1744,-4.59552 -4.08458,-6.51991 -1.91416,-1.92839 -4.97065,-3.62728 -7.67049,-4.26347 -2.64107,-0.62233 -6.77992,-0.39301 -9.14722,0.50678 -4.64209,1.76448 -8.01628,5.08386 -9.81252,9.65314 -0.65656,1.67015 -0.82203,2.53375 -0.92314,4.81798 -0.14828,3.34978 0.17203,5.07828 1.42682,7.69964 1.70641,3.56484 4.13174,6.0593 7.60454,7.82127 3.07873,1.56205 7.39351,2.06375 10.73522,1.24825 z m -6.92003,-2.10373 c -5.00623,-1.21369 -9.3269,-5.59332 -10.52304,-10.66668 -0.52603,-2.23112 -0.22865,-6.13412 0.6276,-8.23703 1.02055,-2.50642 3.00952,-5.011 5.12455,-6.45298 2.3954,-1.63311 4.41723,-2.31502 7.3422,-2.47636 4.29345,-0.23681 7.54787,0.99972 10.60527,4.02952 5.7162,5.66462 5.77124,14.33843 0.1268,19.98287 -3.54209,3.54208 -8.53621,4.97636 -13.30338,3.82066 z m -2.51763,-33.0722 c 7.60691,-2.54318 11.48024,-10.69964 8.78885,-18.50755 -2.35063,-6.81932 -8.06752,-18.76261 -12.2262,-25.54208 -13.34647,-21.75727 -30.84508,-38.97181 -52.52599,-51.67329 -4.5196,-2.64774 -6.39398,-3.35901 -9.32688,-3.5393 -8.73593,-0.53703 -16.26232,7.45056 -14.95567,15.87211 0.78018,5.02836 3.11171,8.37912 7.67962,11.03675 15.02527,8.74184 25.77506,17.89425 35.89656,30.56247 6.87507,8.60494 13.28379,19.66712 17.55088,30.2948 2.12624,5.29563 2.35501,5.72632 3.99493,7.52065 1.73473,1.89806 3.19653,2.90578 5.44031,3.75033 3.32752,1.25249 6.3972,1.32384 9.68359,0.22511 z m -6.15585,-1.46973 c -3.00014,-0.42694 -5.55527,-1.76806 -7.44001,-3.90502 -1.32068,-1.49743 -1.8469,-2.52862 -3.79883,-7.44426 -1.71941,-4.33007 -5.35621,-11.78332 -7.68164,-15.74271 -5.44539,-9.27161 -10.88432,-16.38292 -18.38577,-24.03909 -8.21964,-8.38917 -15.46678,-14.08586 -25.6628,-20.17249 -4.79499,-2.86242 -5.91766,-3.74891 -7.1193,-5.6215 -5.2398,-8.16552 0.59317,-18.84391 10.28196,-18.82314 2.92233,0.006 4.69944,0.73234 10.79879,4.41216 19.30846,11.64905 35.93383,27.89791 48.13628,47.04615 4.23934,6.65241 8.14199,14.12517 11.33068,21.69583 2.4391,5.79096 3.04272,7.62844 3.21597,9.78958 0.60283,7.5202 -6.18005,13.87113 -13.67533,12.80449 z m 41.89013,49.70332 c 0.0877,-0.9095 0.30182,-4.77562 0.47581,-8.59139 0.68857,-15.10022 -0.82093,-30.729 -4.42467,-45.81138 -5.63941,-23.60211 -16.69485,-46.17339 -31.96196,-65.25504 -5.98111,-7.47551 -15.20218,-17.00998 -22.24599,-23.00211 -20.471,-17.4145 -44.88449,-29.77433 -70.51665,-35.70046 -14.88831,-3.44218 -31.31828,-4.93623 -45.77292,-4.16232 -3.1287,0.16751 -6.31362,0.3774 -7.0776,0.46646 L 0,324.45203 V 162.22601 0 h 62.98867 c 59.86478,0 62.9819,-0.44002 62.85225,0 -0.36048,1.22357 -1.79752,11.81432 -2.26192,16.40417 -1.6428,16.23675 -1.49759,33.89189 0.40695,49.47708 8.08795,66.18528 46.68501,125.40833 104.34947,160.11306 34.79364,20.94018 74.71897,31.60604 115.35833,30.8174 4.72943,-0.0918 9.70029,-0.24269 11.04636,-0.33536 l 2.44739,-0.16849 V 382.15393 508 h -87.21695 -87.21696 z m 147.55154,-251.7142 c -5.20436,-0.29817 -13.34426,-0.99588 -16.93334,-1.45142 -43.39494,-5.50789 -82.6536,-23.20401 -115.8875,-52.23714 -4.72872,-4.13101 -15.4596,-14.89842 -19.66106,-19.72799 C 147.31077,145.95826 129.20872,103.46117 125.27,57.46517 123.73284,39.51438 124.84212,16.05394 127.95271,0.7276 L 128.10038,0 h 114.54384 114.54384 l 0.005,127.07959 -0.006,127.05271 -2.11661,0.17876 c -2.31333,0.19537 -22.07398,0.46617 -24.60625,0.32109 z M 235.8101,196.3805 c 1.76723,-0.78628 3.98567,-2.96867 4.71304,-4.63648 0.89238,-2.04614 1.00362,-5.14447 0.25588,-7.12687 -0.81037,-2.14844 -1.90525,-3.32672 -5.89597,-6.34503 -6.81757,-5.15637 -12.5427,-10.21518 -18.99547,-16.78467 -10.27445,-10.46029 -18.39094,-20.98141 -25.77969,-33.41732 -13.56202,-22.82604 -21.59761,-48.18819 -23.81118,-75.15346 -0.221,-2.69214 -0.45303,-5.52023 -0.51564,-6.28464 -0.24622,-3.00641 -2.3441,-5.90504 -5.32774,-7.36131 -1.35565,-0.66168 -1.88012,-0.76729 -3.82556,-0.77032 -2.01789,-0.003 -2.43992,0.0877 -4.02096,0.86609 -1.95384,0.96187 -3.49073,2.50417 -4.48133,4.4971 -0.58077,1.1684 -0.61794,1.52588 -0.58379,5.61349 0.0426,5.10089 0.56219,10.46384 1.83275,18.91772 7.0226,46.72601 31.75822,90.05379 68.68935,120.3187 3.73881,3.06394 8.07112,6.36127 9.34717,7.11416 2.38717,1.40846 5.94909,1.64291 8.39914,0.55284 z m -5.96585,-1.76419 c -1.33801,-0.47729 -2.27611,-1.11798 -6.79107,-4.63812 -6.40614,-4.99462 -10.69627,-8.82157 -17.49619,-15.60719 -8.20486,-8.18761 -14.3123,-15.32573 -20.60963,-24.08766 -15.96682,-22.21581 -27.34574,-48.80403 -32.38474,-75.67084 -2.13799,-11.3993 -3.55137,-25.75634 -2.82947,-28.74163 0.47765,-1.97524 1.80842,-3.59628 3.74797,-4.56549 2.77578,-1.38707 5.47611,-0.98203 7.88364,1.18255 1.67143,1.50275 2.14815,2.74057 2.43703,6.3277 1.19519,14.84134 2.91224,25.39175 5.89923,36.247915 4.40907,16.024675 9.97908,29.354185 18.03587,43.161365 11.77037,20.17126 27.77179,38.13387 46.57539,52.28381 3.06308,2.30501 3.84373,3.14427 4.48392,4.82059 0.65867,1.72468 0.43166,4.46447 -0.5019,6.05746 -1.73276,2.95673 -5.34478,4.33721 -8.45005,3.22954 z"
       id="path924"
       transform="translate(0,-46.958332)"
       sodipodi:nodetypes="ccscssccccsssssssssssssssssssssssssssssssssssssssscssssssssssssscccsccsssscccccssssssscccccssssssssssssccsssssssssssssssssssss" />
  </g>
  <g
     sodipodi:insensitive="true"
     style="opacity:1"
     id="layer1"
     inkscape:groupmode="layer"
     inkscape:label="Template"
     transform="translate(0,46.958332)">
    <text
       id="text18"
       style="font-style:normal;font-variant:normal;font-weight:800;font-stretch:normal;font-size:10.5833px;line-height:1.25;font-family:Sunset-Serial-Heavy;-inkscape-font-specification:'Sunset-Serial-Heavy, Ultra-Bold';font-variant-ligatures:normal;font-variant-caps:normal;font-variant-numeric:normal;font-feature-settings:normal;text-align:start;letter-spacing:0px;word-spacing:0px;writing-mode:lr-tb;text-anchor:start;fill:#ffffff;fill-opacity:1;stroke:none;stroke-width:0.264583"
       xml:space="preserve"><textPath
         style="font-style:normal;font-variant:normal;font-weight:800;font-stretch:normal;font-size:12.7px;font-family:Sunset-Serial-Heavy;-inkscape-font-specification:'Sunset-Serial-Heavy, Ultra-Bold';font-variant-ligatures:normal;font-variant-caps:normal;font-variant-numeric:normal;font-feature-settings:normal;text-align:start;writing-mode:lr-tb;text-anchor:start"
         id="textPath5425"
         xlink:href="#path5421">That Time I Got Reincarnated as a Slime</textPath></text>
    <path
       transform="matrix(1.2694221,0,0,1.1344392,-28.42075,-48.947037)"
       sodipodi:nodetypes="cszc"
       inkscape:original-d="m 34.979978,280.85773 c 46.578243,-9.731 24.787911,-12.78698 59.610917,15.84495 17.768925,14.60985 49.306245,45.69638 64.477625,73.26678 15.17138,27.57039 11.72118,59.43595 11.68032,78.85566"
       inkscape:path-effect="#path-effect5423"
       inkscape:connector-curvature="0"
       id="path5421"
       d="m 34.979978,280.85773 c 20.746865,0.49028 41.358804,5.96906 59.610917,15.84495 29.174735,15.78592 51.768945,42.62613 64.477625,73.26678 10.28373,24.7941 14.33504,52.14508 11.68032,78.85566"
       style="opacity:0;vector-effect:none;fill:none;fill-opacity:1;stroke:#0000fa;stroke-width:2;stroke-linecap:butt;stroke-linejoin:round;stroke-miterlimit:4;stroke-dasharray:none;stroke-dashoffset:0;stroke-opacity:1" />
  </g>
  <g
     style="display:inline"
     inkscape:label="Text"
     id="layer4"
     inkscape:groupmode="layer"
     transform="translate(0,46.958332)">
    <g
       style="opacity:1"
       id="g5490">
      <g
         style="opacity:1"
         id="g5460"
         transform="matrix(0.02817895,0,0,0.02817895,-215.94964,-11.396679)">
        <g
           id="layer102"
           style="fill:#ffffff;stroke:none"
           transform="matrix(1.3368912,0,0,1.3368912,-6062.6223,-4484.6941)">
          <path
             id="path5445"
             d="m 15109.62,10358.47 c -56,-39 -64,-102 -32,-254 27,-131.9998 35,-235.9998 21,-287.9998 -13,-47 -38,-65 -53,-39 -13,24 -37,21 -42,-5 -3,-13 -7,-56 -9,-96 -5,-91 -21,-112 -68,-95 -59,23 -76,-5 -82,-137 -3,-67 -9,-96 -30,-137 -32,-63 -34,-100 -6,-188 11,-37 24,-105 29,-151 11,-104 32,-142 105,-189 35,-22 66,-53 89,-90 47,-72 68,-81 172,-66 139,19 173,16 240,-26 115,-71 144,-83 204,-83 100,0 158,24 220,91 l 56,59 h 64 c 73,0 93,12 129,72 26,43 47,52 105,44 106,-16 189,71 207,218 6,44 20,91 39,127 37,71 38,114 6,178 -14,27 -28,72 -32,102 -6,44 -14,62 -46,97 -38,41 -40,46 -33,89 5,33 2,51 -10,70 -16,24 -17,24 -37,7 -14,-13 -18,-26 -14,-45 3,-15 -1,-34 -9,-45 -15,-19 -15,-19 -30,0 -11,14 -15,45 -15,113 0,82 -3,96 -22,115 l -21,21 -24,-27 c -12,-15 -23,-38 -23,-50 0,-27 -24,-51 -40,-41 -6,4 -15,18 -21,32 -6,18 -15,24 -32,21 -18,-2 -24,-13 -33,-61 -12,-59 -28,-87 -49,-87 -24,0 -38,31 -45,106 -10,105 4,217 41,315.9998 37,100 41,167 13,205 -40,53 -89,47 -131,-16 -29,-43 -29,-94 -3,-220 26,-120.9998 26,-212.9998 0,-267.9998 -13,-30 -25,-43 -39,-43 -15,0 -23,10 -32,43 -20,76 -41,85 -96,36 -32,-27 -37,-29 -56,-16 -38,25 -42,66 -18,169 12,51 21,116.9998 21,144.9998 0,45 -4,55 -25,69 -32,21 -61,11 -81,-28 -14,-26 -15,-51 -9,-153.9998 9,-151 -6,-213 -64,-274 -44,-46 -51,-48 -77,-19 -21,24 -23,68 -9,206 8,79 7,82 -18,107 -30,29.9998 -36,30.9998 -61,13 -29,-21 -36,-91 -20,-180 16,-81 13,-106 -12,-132 -21,-20 -40,-19 -64,5 -18,18 -20,33 -20,153 0,112 5,151 30,256.9998 41,171 39,230 -9,267 -22,17 -62,16 -89,-3 z"
             inkscape:connector-curvature="0" />
        </g>
      </g>
      <text
         xml:space="preserve"
         style="font-style:normal;font-variant:normal;font-weight:800;font-stretch:normal;font-size:10.5833px;line-height:1.25;font-family:Sunset-Serial-Heavy;-inkscape-font-specification:'Sunset-Serial-Heavy, Ultra-Bold';font-variant-ligatures:normal;font-variant-caps:normal;font-variant-numeric:normal;font-feature-settings:normal;text-align:center;letter-spacing:0px;word-spacing:0px;writing-mode:lr-tb;text-anchor:middle;fill:#000000;fill-opacity:1;stroke:none;stroke-width:0.264583"
         x="201.48763"
         y="205.50021"
         id="text5477"><tspan
           sodipodi:role="line"
           id="tspan5475"
           x="201.48763"
           y="205.50021"
           style="font-style:normal;font-variant:normal;font-weight:800;font-stretch:normal;font-size:10.5833px;font-family:Sunset-Serial-Heavy;-inkscape-font-specification:'Sunset-Serial-Heavy, Ultra-Bold';font-variant-ligatures:normal;font-variant-caps:normal;font-variant-numeric:normal;font-feature-settings:normal;text-align:center;writing-mode:lr-tb;text-anchor:middle;stroke-width:0.264583">Story</tspan><tspan
           sodipodi:role="line"
           x="201.48763"
           y="218.72934"
           style="font-style:normal;font-variant:normal;font-weight:800;font-stretch:normal;font-size:10.5833px;font-family:Sunset-Serial-Heavy;-inkscape-font-specification:'Sunset-Serial-Heavy, Ultra-Bold';font-variant-ligatures:normal;font-variant-caps:normal;font-variant-numeric:normal;font-feature-settings:normal;text-align:center;writing-mode:lr-tb;text-anchor:middle;stroke-width:0.264583"
           id="tspan5479">#NUMBER#</tspan></text>
      <text
         id="text5530"
         y="273.00314"
         x="172.51741"
         style="font-style:normal;font-variant:normal;font-weight:normal;font-stretch:normal;font-size:10.5833px;line-height:1.25;font-family:sun;-inkscape-font-specification:sun;letter-spacing:0px;word-spacing:0px;fill:#ffffff;fill-opacity:1;stroke:none;stroke-width:0.264583"
         xml:space="preserve"><tspan
           style="font-style:normal;font-variant:normal;font-weight:800;font-stretch:normal;font-size:16.9333px;font-family:Sunset-Serial-Heavy;-inkscape-font-specification:'Sunset-Serial-Heavy, Ultra-Bold';font-variant-ligatures:normal;font-variant-caps:normal;font-variant-numeric:normal;font-feature-settings:normal;text-align:start;writing-mode:lr-tb;text-anchor:start;fill:#ffffff;stroke-width:0.264583"
           y="273.00314"
           x="172.51741"
           sodipodi:role="line"
           id="tspan48942">#TEXT1#</tspan><tspan
           style="font-style:normal;font-variant:normal;font-weight:800;font-stretch:normal;font-size:16.9333px;font-family:Sunset-Serial-Heavy;-inkscape-font-specification:'Sunset-Serial-Heavy, Ultra-Bold';font-variant-ligatures:normal;font-variant-caps:normal;font-variant-numeric:normal;font-feature-settings:normal;text-align:start;writing-mode:lr-tb;text-anchor:start;fill:#ffffff;stroke-width:0.264583"
           y="294.16977"
           x="172.51741"
           sodipodi:role="line"
           id="tspan6134">#TEXT2#</tspan><tspan
           style="font-style:normal;font-variant:normal;font-weight:800;font-stretch:normal;font-size:16.9333px;font-family:Sunset-Serial-Heavy;-inkscape-font-specification:'Sunset-Serial-Heavy, Ultra-Bold';font-variant-ligatures:normal;font-variant-caps:normal;font-variant-numeric:normal;font-feature-settings:normal;text-align:start;writing-mode:lr-tb;text-anchor:start;fill:#ffffff;stroke-width:0.264583"
           y="315.3364"
           x="172.51741"
           sodipodi:role="line"
           id="tspan6136">#TEXT3#</tspan><tspan
           style="font-style:normal;font-variant:normal;font-weight:800;font-stretch:normal;font-size:16.9333px;font-family:Sunset-Serial-Heavy;-inkscape-font-specification:'Sunset-Serial-Heavy, Ultra-Bold';font-variant-ligatures:normal;font-variant-caps:normal;font-variant-numeric:normal;font-feature-settings:normal;text-align:start;writing-mode:lr-tb;text-anchor:start;fill:#ffffff;stroke-width:0.264583"
           y="336.50302"
           x="172.51741"
           sodipodi:role="line"
           id="tspan6138">#TEXT4#</tspan></text>
    </g>
  </g>
</svg>
